# xmcd
#
# Track frame offsets:
#	150
#	17122
#	30414
#	44736
#	53974
#	66564
#	82037
#	90658
#	102015
#	112337
#	125534
#	137126
#	151061
#
# Disc length: 2204 seconds
#
# Revision: 1
# Processed by: cddbd v1.5.2PL0 Copyright (c) Steve Scherf et al.
# Submitted via: EZCDAudioConverter 7.0.6.1
#
DISCID=b5089a0d
DTITLE=Praise lll
DYEAR=1979
DGENRE=
TTITLE0=Maranatha Singers (Kelly Willard) - We Have Come Into His House (Let's
TTITLE0=Forget About Ourselves)
TTITLE1=Maranatha Singers - Humble Thyself In The Sight Of The Lord
TTITLE2=Maranatha Singers - Lord Be Glorified
TTITLE3=Maranatha Singers - Behold What Manner Of Love (John 6:31)
TTITLE4=Maranatha Singers - Shepherd's Song (He Shall Feed)
TTITLE5=Maranatha Singers (Evie Karlsson) - Spirit Song (O Let The Son Of God 
TTITLE5=Enfold You)
TTITLE6=Maranatha Singers - Behold, Bless Ye The Lord
TTITLE7=Maranatha Singers - John 3:16
TTITLE8=Maranatha Singers (Tom Coomes) - Father I Believe You
TTITLE9=Maranatha Singers - Jesus, Name Above All Names
TTITLE10=Maranatha Singers - His Name Is Jesus
TTITLE11=Maranatha Singers (Pedro Buford) - Wait On The Lord
TTITLE12=Maranatha Singers (Bruce Herring) - We Must Wait (On The Lord)
EXTD=
EXTT0=
EXTT1=
EXTT2=
EXTT3=
EXTT4=
EXTT5=
EXTT6=
EXTT7=
EXTT8=
EXTT9=
EXTT10=
EXTT11=
EXTT12=
PLAYORDER=
